<svg xmlns="http://www.w3.org/2000/svg" version="1.1" xmlns:xlink="http://www.w3.org/1999/xlink" xmlns:svgjs="http://svgjs.dev/svgjs" width="2000" height="1247" viewBox="0 0 2000 1247"><g transform="matrix(1,0,0,1,-1.2121212121212466,248.9101277143909)"><svg viewBox="0 0 396 247" data-background-color="#000000" preserveAspectRatio="xMidYMid meet" height="1247" width="2000" xmlns="http://www.w3.org/2000/svg" xmlns:xlink="http://www.w3.org/1999/xlink"><g id="tight-bounds" transform="matrix(1,0,0,1,0.2400000000000091,-0.09999999999999432)"><svg viewBox="0 0 395.52 247.2" height="247.2" width="395.52"><g><svg></svg></g><g><svg viewBox="0 0 395.52 247.2" height="247.2" width="395.52"><g transform="matrix(1,0,0,1,75.54432,48.366506000101396)"><svg viewBox="0 0 244.43135999999998 150.4669879997972" height="150.4669879997972" width="244.43135999999998"><g><svg viewBox="0 0 244.43135999999998 150.4669879997972" height="150.4669879997972" width="244.43135999999998"><g><svg viewBox="0 0 244.43135999999998 150.4669879997972" height="150.4669879997972" width="244.43135999999998"><g transform="matrix(1,0,0,1,0,92.99463502005284)"><svg viewBox="0 0 244.43135999999998 57.47235297974436" height="57.47235297974436" width="244.43135999999998"><g id="textblocktransform"><svg viewBox="0 0 244.43135999999998 57.47235297974436" height="57.47235297974436" width="244.43135999999998" id="textblock"><g><svg viewBox="0 0 244.43135999999998 57.47235297974436" height="57.47235297974436" width="244.43135999999998"><g transform="matrix(1,0,0,1,0,0)"><svg width="244.43135999999998" viewBox="3.55 -35.9 168.19714285714284 39.55" height="57.47235297974436" data-palette-color="#ffffff"><path d="M22.55-18.3Q21.35-18.2 20.8-18.2L20.8-18.2Q17.1-17.95 15.1-17.65L15.1-17.65Q14-17.45 12.4-14.95L12.4-14.95Q11.05-12.85 10.55-8.3L10.55-8.3 10-6.5Q9.75-5.6 9.25-4.95L9.25-4.95Q8.95-4.6 8.47-4.38 8-4.15 7.5-4.15L7.5-4.15Q7.75-4.15 7.3-4.7L7.3-4.7Q6.3-6.05 5.83-6.88 5.35-7.7 5.35-8.75L5.35-8.75Q5.35-9.2 5.5-9.8L5.5-9.8Q5.75-10.55 5.8-11.3L5.8-11.3Q5.9-11.6 6-12.18 6.1-12.75 6.25-13.15L6.25-13.15Q6.4-13.6 6.4-14L6.4-14Q6.4-15.1 5.25-16.1L5.25-16.1Q3.55-17.55 3.55-18.75L3.55-18.75Q3.55-20.15 5.75-21.35L5.75-21.35Q5.95-21.45 6.33-21.7 6.7-21.95 7-22L7-22Q8.05-22.25 8.53-22.95 9-23.65 9.35-24.9L9.35-24.9Q10.3-28.2 11.45-32L11.45-32 12-33.8Q12.1-34.15 12.55-35.1L12.55-35.1Q14.75-35.15 15.68-33.9 16.6-32.65 16.6-30.65L16.6-30.65Q16.6-30.35 16.5-29.75L16.5-29.75 16.05-27.75 15.75-26.65 15.25-24 17.9-23.8 24.25-23.25 25.95-28.5 26.35-30.2Q27.8-32.1 28.9-31.1L28.9-31.1Q29.95-30.15 30.73-28.98 31.5-27.8 31.5-26.3L31.5-26.3Q31.5-24.85 30.65-22.6L30.65-22.6Q31.05-22.35 31.6-22.18 32.15-22 32.35-21.95L32.35-21.95Q33.9-21.5 34.75-20.9 35.6-20.3 35.8-18.75L35.8-18.75Q35.2-17.8 34.2-17.5 33.2-17.2 31.85-17.35L31.85-17.35Q31.35-17.4 30.55-17.4L30.55-17.4Q29.45-17.4 29.1-16.95 28.75-16.5 28.25-14.85L28.25-14.85 27.65-12.9Q26.45-9 25.93-6.65 25.4-4.3 25.2-1.75L25.2-1.75Q25.2-1.55 25.18-0.93 25.15-0.3 24.85 0.08 24.55 0.45 23.9 0.45L23.9 0.45Q22.25 0.6 21.9-1.3L21.9-1.3Q20.7-3.95 20.7-6.4L20.7-6.4Q20.7-7.45 20.8-8L20.8-8Q21.35-11.2 22.25-16.15L22.25-16.15 22.55-18.3ZM54.75-2.55Q54.3-2.75 53.85-2.75L53.85-2.75Q53.4-2.75 53.07-2.53 52.75-2.3 52.35-1.85L52.35-1.85Q51.75-1.25 51.1-0.85L51.1-0.85Q50.5-0.5 48.9-0.2L48.9-0.2Q48.2-0.1 47.75-0.1L47.75-0.1Q45.65-0.1 43.37-1.03 41.1-1.95 40.15-3.25L40.15-3.25Q39.15-4.65 39.2-6.25L39.2-6.25Q39.25-8.65 41.2-11.05L41.2-11.05Q43.1-13.35 44.67-14.3 46.25-15.25 49-15.5L49-15.5Q49.6-15.5 50.72-15.7 51.85-15.9 51.85-16.25L51.85-16.25Q51.85-16.95 51.22-17.53 50.6-18.1 48.7-18.1L48.7-18.1Q48-18.1 46.6-18L46.6-18Q45.2-17.9 44.65-17.9L44.65-17.9Q42.95-17.9 42.2-18.45L42.2-18.45Q42-18.55 42-19.4L42-19.4Q42-20.9 43.05-21.3L43.05-21.3Q45.2-22.1 47.5-22.15L47.5-22.15Q50.4-22.15 52.87-20.88 55.35-19.6 56.5-17.7L56.5-17.7Q57.65-15.8 58-12.45L58-12.45Q58.4-8.7 58.4-2.9L58.4-2.9Q58.4-1.3 57.95-1.05L57.95-1.05Q57.55-0.8 57.2-0.8L57.2-0.8Q56.75-0.8 56.37-1.07 56-1.35 55.55-1.85L55.55-1.85Q55.1-2.4 54.75-2.55L54.75-2.55ZM46.85-3.15Q49.2-3.85 51.45-5.4L51.45-5.4Q51.95-5.75 52.35-6.3 52.75-6.85 52.85-7L52.85-7Q52.95-7.15 53.02-7.88 53.1-8.6 53.05-9.05L53.05-9.05Q53-9.2 52.87-9.85 52.75-10.5 52.5-11L52.5-11Q52.25-11.4 51.7-11.75 51.15-12.1 50.7-12.05L50.7-12.05Q49.75-12 48.65-11.35 47.55-10.7 46.6-9.6L46.6-9.6Q45.65-8.45 45.12-7.28 44.6-6.1 44.6-5.1L44.6-5.1Q44.7-3.75 45.35-3.3L45.35-3.3Q45.7-3.05 46.2-3.05L46.2-3.05Q46.6-3.05 46.85-3.15L46.85-3.15ZM68.4-23.3Q68.3-23 67.67-22.65 67.05-22.3 66.65-22L66.65-22 65.25-22.75Q63.2-23.85 62.45-24.5L62.45-24.5Q62.05-24.8 62.05-25.25L62.05-25.25Q62.05-25.55 62.27-25.78 62.5-26 62.95-26L62.95-26Q64.9-26 67.7-25L67.7-25Q68-24.95 68.25-24.33 68.5-23.7 68.4-23.3L68.4-23.3ZM63.9-14Q64.05-14.65 64.1-14.95 64.15-15.25 64.15-15.6L64.15-15.6Q64.15-16.3 64.57-16.7 65-17.1 66.2-17.1L66.2-17.1Q67.6-17.1 68.67-16.23 69.75-15.35 70-13.95L70-13.95Q70.15-13.25 70.2-12.4 70.25-11.55 70.25-11.3L70.25-11.3 70.95-2.75Q71.1-1.4 70.57-0.68 70.05 0.05 68.6 0.05L68.6 0.05Q67.35 0.05 66.47-0.65 65.6-1.35 65.4-2.45L65.4-2.45 64.1-13.05 63.9-14ZM74.39-18.65Q74.04-19.05 73.92-19.5 73.79-19.95 73.69-20.75L73.69-20.75Q74.14-21.8 75.34-21.8L75.34-21.8Q75.94-21.7 76.19-21.7L76.19-21.7Q77.19-21.7 77.44-22.3 77.69-22.9 77.69-23.7 77.69-24.5 77.69-24.95L77.69-24.95 77.84-27.95Q77.89-28.95 77.97-30.43 78.04-31.9 78.14-33.85L78.14-33.85Q78.19-34.9 78.67-35.4 79.14-35.9 79.99-35.9L79.99-35.9Q80.59-35.9 80.94-35.8L80.94-35.8Q82.99-35.35 83.69-34.5 84.39-33.65 84.64-31.95L84.64-31.95Q84.69-31.6 84.54-30.5L84.54-30.5 83.64-22.7Q83.59-22.4 83.49-21.98 83.39-21.55 83.39-21.35L83.39-21.35Q83.39-20.9 83.89-20.75 84.39-20.6 85.74-20.65L85.74-20.65Q88.04-21.15 89.24-21.3L89.24-21.3Q89.49-21.35 90.04-21.35L90.04-21.35Q90.64-21.35 90.84-21.2L90.84-21.2Q91.04-21.1 91.17-20.63 91.29-20.15 91.29-19.55L91.29-19.55Q91.29-19 91.17-18.55 91.04-18.1 90.84-18.05L90.84-18.05Q89.49-17.65 87.64-17.4L87.64-17.4Q85.44-17 84.39-16.7L84.39-16.7Q83.84-16.55 83.29-15.95 82.74-15.35 82.69-14.85L82.69-14.85Q82.59-12.4 82.54-9.85L82.54-9.85Q82.49-7.9 82.69-5.95L82.69-5.95Q82.84-4.3 83.34-3.58 83.84-2.85 84.84-2.85L84.84-2.85Q85.64-2.85 87.14-3.4L87.14-3.4Q87.94-3.75 88.54-3.75L88.54-3.75Q89.49-3.75 89.89-2.7L89.89-2.7Q90.04-2.35 90.04-2L90.04-2Q90.04-1.35 89.57-0.95 89.09-0.55 88.29-0.25L88.29-0.25Q86.79 0.3 85.24 0.35L85.24 0.35Q83.14 0.35 81.29-0.68 79.44-1.7 78.37-3.55 77.29-5.4 77.44-7.8L77.44-7.8Q77.49-8.75 77.49-10.8L77.49-10.8Q77.49-14.05 77.24-17.4L77.24-17.4Q77.19-17.7 76.89-17.82 76.59-17.95 75.89-18.1L75.89-18.1Q74.74-18.3 74.39-18.65L74.39-18.65ZM100.84-26.7Q100.89-21.85 101.12-18.73 101.34-15.6 102.19-12.1L102.19-12.1Q104.29-12.85 106.04-12.85L106.04-12.85Q108.99-12.85 111.14-11.1 113.29-9.35 114.04-6.75L114.04-6.75Q114.64-4.85 114.64-1.65L114.64-1.65 114.59 2.25Q114.59 2.6 114.19 3.05 113.79 3.5 113.39 3.6L113.39 3.6Q113.24 3.65 112.94 3.65L112.94 3.65Q111.79 3.65 110.54 2.53 109.29 1.4 109.24 0.3L109.24 0.3 109.14-2.3Q109.14-3.2 109.04-4.9L109.04-4.9Q108.94-6.65 108.64-7.4L108.64-7.4Q108.34-8.25 107.89-8.7 107.44-9.15 106.89-9.15L106.89-9.15Q106.49-9.15 106.02-8.8 105.54-8.45 105.19-7.85L105.19-7.85Q104.14-6.2 102.44-1.35L102.44-1.35Q101.89 0.4 100.49 0.4L100.49 0.4Q100.34 0.4 99.84 0.3L99.84 0.3Q99.54 0.2 98.69-0.03 97.84-0.25 97.37-0.75 96.89-1.25 96.89-2.2L96.89-2.2Q96.89-11.65 95.74-17.85L95.74-17.85Q95.19-20.95 95.19-25L95.19-25 95.19-28.35 95.19-30.1Q95.19-30.8 95.94-31.3 96.69-31.8 97.64-31.8L97.64-31.8Q98.44-31.8 98.99-31.45L98.99-31.45Q99.99-30.85 100.42-29.95 100.84-29.05 100.84-27.7L100.84-27.7 100.84-26.7ZM127.04-7.8Q126.54-7.5 125.59-7.5L125.59-7.5Q125.24-7.5 124.74-7.55 124.24-7.6 123.89-7.55L123.89-7.55Q124.29-5.9 125.79-4.88 127.29-3.85 129.14-3.85L129.14-3.85Q130.74-3.85 131.99-4.55L131.99-4.55Q133.84-5.5 135.19-6.8L135.19-6.8Q136.14-7.75 136.99-7.75L136.99-7.75Q137.54-7.75 137.94-7.2L137.94-7.2Q138.34-6.55 138.34-5.6L138.34-5.6Q138.34-4.6 137.94-4.05L137.94-4.05Q136.64-2.05 134.56-1.3 132.49-0.55 129.74-0.55L129.74-0.55Q126.89-0.55 124.24-1.8 121.59-3.05 119.71-5.23 117.84-7.4 117.24-10.05L117.24-10.05Q116.84-11.6 116.84-13.1L116.84-13.1Q116.84-15.45 118.16-16.9 119.49-18.35 122.44-19.65L122.44-19.65Q125.14-20.8 127.44-20.8L127.44-20.8Q129.09-20.8 130.64-20.3L130.64-20.3Q135.44-18.8 135.44-16.2L135.44-16.2Q135.44-14.55 133.49-12.2L133.49-12.2Q132.54-11.1 131.24-10.25 129.94-9.4 128.71-8.72 127.49-8.05 127.04-7.8L127.04-7.8ZM129.14-17.05Q129.09-17.3 128.76-17.48 128.44-17.65 128.39-17.7L128.39-17.7Q127.04-17.8 125.64-16.93 124.24-16.05 123.31-14.7 122.39-13.35 122.39-12.1L122.39-12.1 122.44-11.7Q122.49-11.5 122.96-11.2 123.44-10.9 123.54-11L123.54-11Q127.09-13.65 128.89-15.25L128.89-15.25Q129.19-15.55 129.19-16.35L129.19-16.35Q129.19-16.85 129.14-17.05L129.14-17.05ZM166.39-13.05Q166.29-14.95 164.79-15.85L164.79-15.85Q163.59-15.55 162.84-15.1 162.09-14.65 161.74-14.23 161.39-13.8 160.49-12.6L160.49-12.6Q160.19-12.2 159.86-11.5 159.54-10.8 159.49-10.65L159.49-10.65Q159.34-10.3 159.34-9.9L159.34-9.9Q159.34-9.6 159.46-8.97 159.59-8.35 159.54-8L159.54-8Q159.49-7.25 159.59-5.65L159.59-5.65 159.64-4.1Q159.64-3.4 159.59-3.05L159.59-3.05Q159.49-2.25 159.09-1.65 158.69-1.05 157.99-1.05L157.99-1.05Q157.74-1.05 157.34-1.2L157.34-1.2Q156.99-1.3 156.19-1.55 155.39-1.8 154.94-2.33 154.49-2.85 154.49-3.85L154.49-3.85Q154.49-6.45 153.99-11.65L153.99-11.65Q153.89-12.2 153.78-13.5L153.78-13.5Q153.74-14.05 153.28-14.35 152.84-14.65 152.19-14.65L152.19-14.65Q151.14-14.65 150.59-14.1L150.59-14.1Q148.28-12.8 147.24-11.15 146.19-9.5 146.19-6.9L146.19-6.9 146.24-5.2Q146.24-3.55 145.39-2.15L145.39-2.15Q145.14-1.7 144.36-1.38 143.59-1.05 143.03-1.15L143.03-1.15Q142.53-1.2 142.01-1.83 141.49-2.45 141.49-2.95L141.49-2.95Q141.34-7.15 141.34-11.3L141.34-11.3Q141.34-15.05 141.44-16.9L141.44-16.9Q141.49-17.85 142.09-18.4 142.69-18.95 143.53-18.95L143.53-18.95Q144.64-18.95 145.49-18.15L145.49-18.15Q145.94-17.3 146.24-16.93 146.53-16.55 146.89-16.55L146.89-16.55Q147.19-16.55 147.59-16.88 147.99-17.2 148.69-17.95L148.69-17.95Q150.34-19.75 152.14-19.75L152.14-19.75Q154.09-19.75 156.84-17.8L156.84-17.8Q157.03-17.65 157.39-17.38 157.74-17.1 157.99-17.1L157.99-17.1Q158.34-17.1 159.09-17.9L159.09-17.9Q161.89-20.5 166.19-20.75L166.19-20.75Q167.54-20.8 168.91-19.73 170.29-18.65 170.64-17.15L170.64-17.15Q171.24-14.6 171.49-11.15L171.49-11.15Q171.79-5.95 171.74-3.35L171.74-3.35Q171.69-2.15 171.09-1.48 170.49-0.8 169.54-0.8L169.54-0.8Q168.79-0.8 167.94-1.25L167.94-1.25Q167.59-1.4 167.29-1.8 166.99-2.2 166.99-2.5L166.99-2.5 166.69-7.8Q166.64-8.65 166.59-9.98 166.54-11.3 166.39-13.05L166.39-13.05Z" opacity="1" transform="matrix(1,0,0,1,0,0)" fill="#ffffff" class="wordmark-text-0" data-fill-palette-color="primary" id="text-0"></path></svg></g></svg></g></svg></g></svg></g><g transform="matrix(1,0,0,1,83.21145187508598,0)"><svg viewBox="0 0 78.00845624982801 79.4267918180067" height="79.4267918180067" width="78.00845624982801"><g><svg xmlns="http://www.w3.org/2000/svg" xmlns:xlink="http://www.w3.org/1999/xlink" version="1.1" x="0" y="0" viewBox="14.168000000000001 13.516 71.66499999999999 72.96799999999999" enable-background="new 0 0 100 100" xml:space="preserve" height="79.4267918180067" width="78.00845624982801" class="icon-icon-0" data-fill-palette-color="accent" id="icon-0"><g fill="#ffffff" data-fill-palette-color="accent"><path fill="none" d="M20.092 66.125h59.816v-30.25H20.092V66.125zM22.092 37.875h55.816v26.25H22.092V37.875z"></path><path d="M77.908 37.875H22.092v26.25h55.816V37.875zM27.909 62.5h-4.125v-4.125h4.125V62.5z" fill="#ffffff" data-fill-palette-color="accent"></path><path d="M80.977 29v-5.709h-6.829V29h-3.921v-5.709h-6.829V29h-4.171v-5.709h-6.829V29h-4.795v-5.709h-6.829V29h-3.921v-5.709h-6.829V29h-4.171v-5.709h-6.829V29h-4.856v42h4.856v5.709h6.829V71h3.921v5.709h6.829V71h4.171v5.709h6.829V71h4.795v5.709h6.829V71h3.921v5.709h6.829V71h4.171v5.709h6.829V71h4.856V29H80.977zM79.908 66.125H20.092v-30.25h59.816V66.125z" fill="#ffffff" data-fill-palette-color="accent"></path><rect x="21.095" y="78.199" width="2.689" height="8.285" fill="#ffffff" data-fill-palette-color="accent"></rect><rect x="31.845" y="78.199" width="2.689" height="8.285" fill="#ffffff" data-fill-palette-color="accent"></rect><rect x="42.845" y="78.199" width="2.689" height="8.285" fill="#ffffff" data-fill-palette-color="accent"></rect><rect x="54.469" y="78.199" width="2.689" height="8.285" fill="#ffffff" data-fill-palette-color="accent"></rect><rect x="65.219" y="78.199" width="2.689" height="8.285" fill="#ffffff" data-fill-palette-color="accent"></rect><rect x="76.219" y="78.199" width="2.689" height="8.285" fill="#ffffff" data-fill-palette-color="accent"></rect><rect x="76.216" y="13.516" width="2.689" height="8.284" fill="#ffffff" data-fill-palette-color="accent"></rect><rect x="65.466" y="13.516" width="2.689" height="8.284" fill="#ffffff" data-fill-palette-color="accent"></rect><rect x="54.466" y="13.516" width="2.689" height="8.284" fill="#ffffff" data-fill-palette-color="accent"></rect><rect x="42.842" y="13.516" width="2.689" height="8.284" fill="#ffffff" data-fill-palette-color="accent"></rect><rect x="32.092" y="13.516" width="2.689" height="8.284" fill="#ffffff" data-fill-palette-color="accent"></rect><rect x="21.092" y="13.516" width="2.689" height="8.284" fill="#ffffff" data-fill-palette-color="accent"></rect></g></svg></g></svg></g><g></g></svg></g></svg></g></svg></g><g><path d="M113.79 34.799A122.216 122.216 0 0 1 281.73 34.799L276.547 34.799A117.033 117.033 0 0 0 118.973 34.799L113.79 34.799M113.79 212.401A122.216 122.216 0 0 0 281.73 212.401L276.547 212.401A117.033 117.033 0 0 1 118.973 212.401L113.79 212.401" fill="#ff0000" stroke="transparent" data-fill-palette-color="tertiary"></path></g></svg></g><defs></defs></svg><rect width="395.52" height="247.2" fill="none" stroke="none" visibility="hidden"></rect></g></svg></g></svg>